# xmcd
#
# Track frame offsets:
#	150
#	14005
#	29878
#	44778
#	57355
#	73355
#	91193
#	108695
#	123870
#	138033
#	153860
#	187445
#	234218
#
# Disc length: 3132 seconds
#
# Revision: 0
# Processed by: cddbd v1.5.1PL0 Copyright (c) Steve Scherf et al.
# Submitted via: EasyCDDAExtractor 7.1.2.1
#
DISCID=c00c3a0d
DTITLE=Shelly Fairchild - Ride
DYEAR=2005
DGENRE=Country
TTITLE0=Kiss Me
TTITLE1=Ready To Fall
TTITLE2=Tiny Town
TTITLE3=You Don't Lie Here Anymore
TTITLE4=I Want To Love You
TTITLE5=Eight Crazy Hours (In The Story Of Love)
TTITLE6=Down Into Muddy Water
TTITLE7=Ride
TTITLE8=Time Machine
TTITLE9=I'm Goin' Back
TTITLE10=Fear Of Flying
TTITLE11=(Data Track)
TTITLE12=(Data Track)
EXTD=
EXTT0=
EXTT1=
EXTT2=
EXTT3=
EXTT4=
EXTT5=
EXTT6=
EXTT7=
EXTT8=
EXTT9=
EXTT10=
EXTT11=
EXTT12=
PLAYORDER=
